# xmcd
# 
# Track frame offsets:
#     150
#     11935
#     23730
#     36192
#     48542
#     61502
#     73417
#     86692
#     98235
#     110482
#     121507
#     133357
#     145307
#     157340
# 
# Disc length: 2404
# 
# Revision: 0
# Processed by: cddbd v1.5.2PL0 Copyright (c) Steve Scherf et al.
# Submitted via: fre:ac v1.1beta1pre5
# 
DISCID=ca09620e
DTITLE=The Platters - Only You (Y sus Mejores Exitos)
DYEAR=0
DGENRE=Chanson
TTITLE0=Only You (And You Alone)
TTITLE1=The Great Pretender
TTITLE2=Twilight Time
TTITLE3=My Prayer
TTITLE4=Only Because
TTITLE5=You'll Never Never Know
TTITLE6=Harbor Lights
TTITLE7=Smoke Gets In Your Eyes
TTITLE8=(You've Got) The Magic Touch
TTITLE9=Red Sails In The Sunset
TTITLE10=How Beautiful Our Love
TTITLE11=With This Ring
TTITLE12=I Love You 1000 Times
TTITLE13=Unchained Melody
EXTD=
EXTT0=
EXTT1=
EXTT2=
EXTT3=
EXTT4=
EXTT5=
EXTT6=
EXTT7=
EXTT8=
EXTT9=
EXTT10=
EXTT11=
EXTT12=
EXTT13=
PLAYORDER=
